<svg version="1.1" xmlns="http://www.w3.org/2000/svg" xmlns:xlink="http://www.w3.org/1999/xlink" width="50px" height="50px" viewBox="0,0,256,256"><g fill="#eeeeee" fill-rule="nonzero" stroke="none" stroke-width="1" stroke-linecap="butt" stroke-linejoin="miter" stroke-miterlimit="10" stroke-dasharray="" stroke-dashoffset="0" font-family="none" font-weight="none" font-size="none" text-anchor="none" style="mix-blend-mode: normal"><g transform="scale(5.12,5.12)"><path d="M10.59961,4c-4.73754,0 -8.59961,3.86206 -8.59961,8.59961v18.80078v7c0,4.73754 3.86206,8.59961 8.59961,8.59961h28.80078c4.73754,0 8.59961,-3.86207 8.59961,-8.59961v-7.80078v-18c0,-4.73754 -3.86207,-8.59961 -8.59961,-8.59961zM10.59961,6h28.80078c3.65646,0 6.59961,2.94315 6.59961,6.59961v18v0.80078c0,3.65646 -2.94315,6.59961 -6.59961,6.59961h-28.80078c-3.65645,0 -6.59961,-2.94315 -6.59961,-6.59961v-0.80078v-18c0,-3.65645 2.94315,-6.59961 6.59961,-6.59961zM14,17v9.86328h6.38477v-1.52344h-4.62109v-2.76172h4.36914v-1.43555h-4.36914v-2.61914h4.62109v-1.52344zM25.21875,19.23633c-1.764,0 -2.99509,0.93606 -2.99609,2.28906c0,1.128 0.67728,1.79114 2.11328,2.11914l1.32422,0.30664c0.711,0.158 1.0332,0.42561 1.0332,0.84961c0,0.554 -0.59522,0.92969 -1.44922,0.92969c-0.848,0 -1.37506,-0.32881 -1.53906,-0.88281h-1.67383c0.13,1.36 1.30487,2.16797 3.17188,2.16797c1.867,0 3.18555,-0.95853 3.18555,-2.39453c0,-1.101 -0.6628,-1.71416 -2.0918,-2.03516l-1.31836,-0.30273c-0.752,-0.17 -1.10742,-0.42952 -1.10742,-0.85352c0,-0.54 0.58151,-0.9082 1.35352,-0.9082c0.793,0 1.29302,0.33533 1.41602,0.86133h1.5918c-0.123,-1.36 -1.23667,-2.14648 -3.01367,-2.14648zM33.30469,19.23633c-2.249,0 -3.56836,1.44214 -3.56836,3.86914c0,2.461 1.32522,3.91016 3.57422,3.91016c1.894,0 3.06891,-1.05414 3.25391,-2.61914h-1.61328c-0.177,0.779 -0.76449,1.19727 -1.64648,1.19727c-1.156,0 -1.85352,-0.91628 -1.85352,-2.48828c0,-1.551 0.69152,-2.44727 1.85352,-2.44727c0.929,0 1.48948,0.51914 1.64648,1.24414h1.61328c-0.178,-1.572 -1.33877,-2.66602 -3.25977,-2.66602zM4,36.90234c1.57946,1.89041 3.95257,3.09766 6.59961,3.09766h28.80078c2.64704,0 5.02015,-1.20724 6.59961,-3.09766v1.49805c0,3.65646 -2.94315,6.59961 -6.59961,6.59961h-28.80078c-3.65645,0 -6.59961,-2.94315 -6.59961,-6.59961z"></path></g></g></svg>