<svg version="1.1" xmlns="http://www.w3.org/2000/svg" xmlns:xlink="http://www.w3.org/1999/xlink" width="50px" height="50px" viewBox="0,0,256,256"><g fill="#eeeeee" fill-rule="nonzero" stroke="none" stroke-width="1" stroke-linecap="butt" stroke-linejoin="miter" stroke-miterlimit="10" stroke-dasharray="" stroke-dashoffset="0" font-family="none" font-weight="none" font-size="none" text-anchor="none" style="mix-blend-mode: normal"><g transform="scale(5.12,5.12)"><path d="M10.60156,4c-4.74,0 -8.60156,3.86156 -8.60156,8.60156v18v0.79688v7c0,4.74 3.86156,8.60156 8.60156,8.60156h28.79688c4.74,0 8.60156,-3.86243 8.60156,-8.60156v-7v-0.79688v-18c0,-4.74 -3.86243,-8.60156 -8.60156,-8.60156zM10.60156,6h28.79688c3.65887,0 6.60156,2.94156 6.60156,6.60156v18v0.79688c0,3.65887 -2.94156,6.60156 -6.60156,6.60156h-28.79688c-3.66,0 -6.60156,-2.94156 -6.60156,-6.60156v-0.79688v-18c0,-3.66 2.94156,-6.60156 6.60156,-6.60156zM10.91992,14.88086v14.23828h1.88086v-6.58008h6.59961v-1.57812h-6.59961v-4.43945h7.47852v-1.64063zM26.61914,14.95898c-0.227,1 -0.67661,1.68755 -1.34961,2.06055c-0.674,0.373 -1.58447,0.56055 -2.73047,0.56055v1.2793h3.56055v10.25977h1.86133v-14.1582v-0.00195zM37.74023,14.95898c-0.228,1 -0.67756,1.68755 -1.35156,2.06055c-0.672,0.373 -1.58252,0.56055 -2.72852,0.56055v1.2793h3.56055v10.25977h1.85938v-14.1582v-0.00195zM4,36.90234c1.57959,1.89071 3.95315,3.09766 6.60156,3.09766h28.79688c2.64841,0 5.02197,-1.20686 6.60156,-3.09766v1.49609c0,3.65887 -2.94156,6.60156 -6.60156,6.60156h-28.79688c-3.66,0 -6.60156,-2.94156 -6.60156,-6.60156z"></path></g></g></svg>